# xmcd CD database file
#
# Track frame offsets:
#	150
#	11414
#	20130
#	33303
#	51399
#	62068
#	75163
#	86487
#	96568
#	106300
#	117614
#	128355
#	139548
#	152462
#
# Disc length: 2176 seconds
#
# Revision: 0
# Processed by: cddbd v1.5.1PL2 Copyright (c) Steve Scherf et al.
# Submitted via: CDex 1.51
#
DISCID=aa087e0e
DTITLE=John Lee Hooker - Boom Boom
DYEAR=2004
DGENRE=Blues
TTITLE0=01-Boom Boom
TTITLE1=02-Hobo Blues
TTITLE2=03-I Want To Hug You
TTITLE3=04-House Rent Boogie
TTITLE4=05-Want Ad Blues
TTITLE5=06-I'm So Excited
TTITLE6=07-Hard Headed Woman
TTITLE7=08-I Wanna Talk
TTITLE8=09-Onions
TTITLE9=10-What Do You Say
TTITLE10=11-Keep Your Hands To Yourself
TTITLE11=12-Send My Your Pillow
TTITLE12=13-She Shot Me Down
TTITLE13=14-I Want To Shout
EXTD=YEAR: 2004
EXTT0=
EXTT1=
EXTT2=
EXTT3=
EXTT4=
EXTT5=
EXTT6=
EXTT7=
EXTT8=
EXTT9=
EXTT10=
EXTT11=
EXTT12=
EXTT13=
PLAYORDER=
